<svg width="92" height="34" viewBox="0 0 92 34" fill="none" xmlns="http://www.w3.org/2000/svg">
<path d="M8.54827 5.00755C8.54827 4.42479 8.54827 3.93064 8.54827 3.43734C8.54339 2.84095 8.53039 2.24456 8.52877 1.64817C8.52877 1.43432 8.5832 1.25626 8.84077 1.24262C10.1448 1.17276 11.4473 1.062 12.7522 1.04156C13.4615 1.03048 14.1732 1.1668 14.8834 1.24433C15.1954 1.27841 15.3124 1.5323 15.1775 1.87224C14.7217 3.02839 14.7119 4.23565 14.8192 5.45058C14.8444 5.73855 15.006 5.92002 15.3262 5.92513C16.2313 5.94132 16.8699 5.45569 17.2412 4.6642C17.5427 4.02606 17.7076 3.3138 17.9083 2.62625C18.0091 2.27949 18.0399 1.90973 18.1342 1.55956C18.1776 1.42926 18.2672 1.32153 18.3844 1.25881C18.6027 1.15484 18.8317 1.07792 19.0669 1.02963C20.3651 0.762946 21.6908 0.673597 23.0108 0.76381C23.3139 0.783406 23.4983 1.2963 23.4244 1.71122C23.2676 2.58365 23.1416 3.46205 23.01 4.33959C22.9938 4.46654 22.9938 4.59519 23.01 4.72213C23.0848 5.3935 23.036 5.72662 23.946 5.6755C24.0906 5.66783 24.2475 5.7607 24.3856 5.82716C24.6171 5.94643 24.7918 5.96944 24.8552 5.63972C24.9901 4.89934 25.1883 4.16408 25.2444 3.41689C25.3135 2.50101 25.3386 1.58342 25.723 0.741657C25.8042 0.560185 26.0406 0.355709 26.221 0.338669C27.4016 0.222799 28.587 0.150381 29.7709 0.0745545C30.8791 0.00298777 30.7914 0.198944 31.0855 1.1472C31.5324 2.58876 31.3211 4.08825 31.1927 5.56815C31.173 5.76624 31.1651 5.96542 31.1692 6.16454C31.2417 8.40356 31.317 10.6426 31.395 12.8816C31.4657 14.8642 31.5575 16.8467 31.6128 18.8301C31.6835 21.4952 31.7412 24.1619 31.7704 26.8277C31.785 28.1747 31.7379 29.5234 31.6892 30.8704C31.6615 31.6909 31.5584 32.5088 31.5413 33.3292C31.5332 33.7263 31.3788 33.7978 31.0538 33.7901C30.2413 33.7697 29.4288 33.7706 28.6163 33.7731C24.7163 33.7842 20.8114 33.6572 16.9162 33.8489C12.233 34.0798 7.55458 33.9716 2.87456 33.9921C2.09537 33.9921 1.31699 33.8575 0.537798 33.7978C0.26561 33.7774 0.259108 33.6044 0.259921 33.3889C0.259921 32.2106 0.255859 31.0323 0.255859 29.854C0.255859 20.5264 0.258025 11.1989 0.262358 1.87139C0.262358 1.5306 0.271297 1.1898 0.258297 0.849008C0.245297 0.508214 0.377736 0.379565 0.703549 0.276475C2.09943 -0.161446 3.51481 0.0489946 4.92857 0.0609224C5.26088 0.0609224 5.38682 0.231319 5.38682 0.561037C5.38682 1.79642 5.38682 3.03179 5.38682 4.26547C5.38682 4.89679 5.44776 4.98966 6.05063 5.00414C6.8737 5.02203 7.68376 5.00755 8.54827 5.00755ZM1.49574 31.6602C1.90199 31.7318 2.37243 31.8783 2.84287 31.8851C4.67913 31.909 6.51457 31.9447 8.34758 31.696C9.25433 31.5733 10.1863 31.6576 11.1101 31.6457C11.574 31.6406 11.622 31.5733 11.5163 31.1038C11.504 31.048 11.4977 30.9908 11.4977 30.9334C11.4928 29.491 11.3465 28.0495 11.6285 26.6096C11.8682 25.3904 12.2378 24.2547 13.0138 23.2869C13.5979 22.5394 14.42 22.0386 15.3286 21.8768C16.0257 21.7542 16.7619 21.8189 17.4744 21.8768C17.7726 21.9016 18.1496 22.0515 18.3292 22.2832C19.1019 23.2758 19.3854 24.4873 19.4935 25.7312C19.604 27.0135 19.6389 28.3034 19.7096 29.5899C19.7191 29.9444 19.7462 30.2982 19.7909 30.6497C19.8096 30.769 19.9379 30.9411 20.0403 30.9624C20.5016 31.0613 20.9679 31.1318 21.437 31.1737C22.3373 31.2504 23.2391 31.3305 24.1418 31.3492C25.8058 31.385 27.4731 31.385 29.1355 31.3722C29.2679 31.3722 29.4824 31.1763 29.5165 31.0314C29.6324 30.5816 29.7016 30.12 29.7229 29.6546C29.8342 25.8266 29.8854 21.9995 29.614 18.1741C29.4922 16.4932 29.4109 14.8071 29.393 13.1227C29.3752 11.3957 29.4499 9.6679 29.5003 7.94093C29.5117 7.36016 29.5562 6.78063 29.6335 6.20544C29.7148 5.62694 29.913 5.06633 29.9789 4.48698C30.0447 3.90763 30.0008 3.32573 30.0187 2.74467C30.0365 2.19429 29.8302 1.72229 29.4995 1.33549C29.3524 1.16509 29.0469 0.980214 28.8649 1.02707C28.3644 1.15572 27.8452 1.32697 27.4178 1.61835C26.481 2.25649 26.1178 3.29165 25.987 4.39497C25.9171 4.96495 26.0065 5.55452 26.0073 6.13557C26.0073 6.29064 25.9927 6.5326 25.905 6.58372C25.6761 6.72291 25.4204 6.80674 25.1566 6.82909C24.4676 6.86317 23.7754 6.82909 23.0864 6.84869C22.6704 6.85806 22.3413 6.65017 22.0399 6.40736C21.9099 6.30256 21.7864 6.07508 21.7961 5.9115C21.8392 5.07997 21.9237 4.25098 21.9984 3.42115C22.0488 2.8614 22.1179 2.30249 22.1512 1.74189C22.1561 1.65669 22.022 1.48118 21.9416 1.47351C21.7027 1.45136 21.4297 1.4241 21.2201 1.51952C20.5051 1.84498 19.812 2.22667 19.1076 2.57939C18.7509 2.75745 18.6656 3.08376 18.6582 3.44841C18.6526 3.70401 18.6842 3.96557 18.6826 4.22372C18.6826 4.86782 18.707 5.51533 18.6485 6.15432C18.5827 6.86147 18.5469 6.86573 17.8604 6.82227C17.5281 6.80183 17.1909 6.67658 16.8683 6.71407C15.968 6.82057 15.0767 7.01056 14.1765 7.12217C13.5452 7.20055 13.4339 7.09661 13.4712 6.44058C13.5289 5.45484 13.6573 4.47335 13.7272 3.48846C13.7439 3.0795 13.7331 2.6698 13.6947 2.26245C13.6784 2.01793 13.5183 1.99067 13.3112 2.03071C12.2278 2.2561 11.1124 2.25262 10.0303 2.02049C9.82146 1.97363 9.68171 2.01452 9.65815 2.26501C9.59965 2.8861 9.52896 3.50635 9.48671 4.1283C9.45177 4.63949 9.47127 5.15068 9.42902 5.66187C9.36971 6.36987 9.10808 6.59905 8.44427 6.58031C7.9527 6.56838 7.45951 6.5752 6.96795 6.54538C6.28138 6.50448 5.59644 6.43718 4.91069 6.38095C4.29075 6.33068 4.29075 6.33153 4.29075 5.67635C4.29075 4.34215 4.29075 3.00794 4.29075 1.67203C4.29075 1.37468 4.29075 0.990437 3.90318 1.00918C3.26537 1.04326 2.61456 1.10546 2.00112 1.27926C1.42586 1.44199 1.38443 1.58683 1.43236 2.25308C1.47949 2.94063 1.62086 3.62392 1.62899 4.31062C1.6753 7.94178 1.79149 11.5738 1.48599 15.2015C1.36249 16.6499 1.28936 18.1111 1.26336 19.5671C1.21868 22.0081 1.1943 24.4498 1.23168 26.8942C1.24711 28.4533 1.39824 30.0056 1.49736 31.6602H1.49574ZM14.7517 23.1131C14.6916 23.6498 14.6225 24.2471 14.5567 24.8443C14.5413 24.9849 14.5405 25.1272 14.5242 25.2703C14.4113 26.2356 14.2277 27.1983 14.1992 28.1671C14.1765 29.019 14.313 29.8821 14.4154 30.7349C14.443 30.9641 14.5779 31.3356 14.7127 31.3628C15.0377 31.4276 15.3928 31.345 15.7275 31.2776C15.8088 31.2606 15.9079 31.0723 15.9177 30.9556C15.9867 30.1266 16.0802 29.2951 16.0802 28.4652C16.072 26.9675 16.0103 25.4697 15.9534 23.9727C15.9136 22.9188 15.8827 22.9043 14.8695 23.0449C14.8286 23.0643 14.7892 23.0871 14.7517 23.1131ZM16.8642 23.7435C16.7773 24.2053 16.6489 24.5845 16.644 24.9653C16.6197 26.9249 16.6237 28.8785 16.627 30.8355C16.627 31.1618 16.8074 31.3603 17.1259 31.3748C17.4232 31.3893 17.7206 31.3748 18.0196 31.3833C18.3007 31.3918 18.4202 31.2606 18.3804 30.9701C18.3129 30.4819 18.2016 29.9954 18.1854 29.5055C18.1358 28.0784 18.1285 26.6522 17.7393 25.2635C17.5792 24.7054 17.3574 24.2079 16.8626 23.7435H16.8642ZM13.3705 24.604L13.2413 24.6288C13.1552 25.1459 13.104 25.6724 12.9764 26.1785C12.6953 27.2912 12.5255 28.4184 12.5539 29.5677C12.5688 29.9868 12.6512 30.4001 12.7977 30.7903C12.8562 30.9488 13.1422 31.0698 13.3372 31.0911C13.4233 31.1004 13.6199 30.8269 13.6272 30.6744C13.6735 29.7074 13.676 28.7379 13.7036 27.77C13.7117 27.4872 13.7036 27.183 13.7938 26.9274C14.0522 26.2245 13.6646 25.5949 13.6313 24.9287C13.6272 24.8162 13.4631 24.7123 13.3721 24.604H13.3705Z" fill="white"/>
<path d="M48.4185 16.5817C48.7898 16.4829 49.0904 16.367 49.3992 16.3261C50.2807 16.2111 51.1656 16.1285 52.0488 16.0313C52.1557 16.0243 52.2616 16.004 52.364 15.9709C52.8044 15.8005 52.9815 15.9172 53.0075 16.4275C53.0473 17.2352 53.0628 18.0463 53.1034 18.8514C53.1232 19.1326 53.161 19.4121 53.2163 19.6881C53.2821 20.0561 53.118 20.2845 52.7581 20.2845C51.6888 20.2913 50.6196 20.293 49.5503 20.2989C49.0344 20.2989 49.0205 20.3168 49.023 20.8434L49.0571 29.744C49.0571 29.9272 49.0571 30.1104 49.0571 30.3319C48.9077 30.3622 48.7565 30.3821 48.6045 30.3915C47.5629 30.3805 46.5205 30.3609 45.4789 30.3447C44.9499 30.337 44.8597 30.2407 44.8483 29.6631C44.8077 27.5485 44.7736 25.4338 44.724 23.3201C44.6742 21.1526 44.6165 18.9857 44.551 16.8194C44.4724 14.1709 44.3879 11.5221 44.2975 8.87297C44.256 7.65633 44.191 6.4397 44.1398 5.22307C44.1138 4.62071 44.1317 4.62668 44.7029 4.58663C45.9014 4.5091 47.099 4.41624 48.2966 4.31911C49.0896 4.25521 49.8818 4.17087 50.6748 4.10526C51.7498 4.02006 52.8255 3.94594 53.9004 3.84967C54.3676 3.80877 54.8324 3.72954 55.298 3.6699C55.5831 3.63326 55.7188 3.73465 55.7042 4.06778C55.6351 5.51104 55.5799 6.9543 55.5263 8.39756C55.5157 8.68638 55.3946 8.80055 55.12 8.78607C53.326 8.68638 51.532 8.59778 49.7388 8.49554C49.2513 8.46742 48.7752 8.40097 48.2926 8.35581C48.039 8.33196 47.905 8.44953 47.9277 8.72472C47.9822 9.40035 48.0439 10.0751 48.0959 10.7507C48.1154 11.0063 48.1227 11.2619 48.1276 11.5175C48.1471 12.6251 48.1439 13.7327 48.191 14.8403C48.2162 15.3906 48.3307 15.9325 48.4185 16.5817Z" fill="white"/>
<path d="M91.7438 3.5957C91.6723 5.41639 91.6065 7.07862 91.5399 8.76384C91.0475 8.76384 90.6583 8.78088 90.2716 8.76384C88.9093 8.69341 87.5475 8.61531 86.1863 8.52955C85.5948 8.49206 85.0057 8.40942 84.4134 8.37534C84.0218 8.35233 83.9381 8.50654 83.9991 8.90868C84.0373 9.2463 84.0569 9.58596 84.0576 9.92595C84.0966 10.9756 84.1258 12.0252 84.1705 13.0783C84.2127 14.053 84.2729 15.0276 84.3208 16.0023C84.3444 16.4905 84.5304 16.62 84.9708 16.499C85.3194 16.4036 85.6793 16.3542 86.0352 16.2945C86.8404 16.1608 87.6488 16.0432 88.4524 15.8984C88.727 15.849 88.9667 15.9836 89.0025 16.2903C89.022 16.4607 89.0114 16.6311 89.0211 16.8015C89.0796 17.8043 89.1349 18.807 89.2048 19.809C89.2308 20.1787 89.1032 20.3057 88.7441 20.2997C87.6748 20.2835 86.6056 20.2997 85.5355 20.304C85.0756 20.304 84.9765 20.4003 84.9822 20.868C85.0074 23.2817 85.0317 25.6945 85.0691 28.1099C85.0781 28.702 85.126 29.2941 85.1731 29.8854C85.2056 30.2935 85.0001 30.4136 84.6621 30.4085C83.5652 30.3906 82.4683 30.3659 81.3722 30.36C81.0895 30.36 80.966 30.279 80.9611 29.9544C80.8836 26.8634 80.7978 23.7724 80.7035 20.6814C80.6272 18.1022 80.5459 15.5232 80.4598 12.9445C80.3856 10.6919 80.3078 8.43924 80.2266 6.18659C80.2101 5.85739 80.174 5.52959 80.1185 5.2051C80.047 4.74673 80.1372 4.63513 80.5947 4.60445C81.834 4.51926 83.0728 4.42838 84.3111 4.33182C85.1707 4.26451 86.0295 4.17591 86.8891 4.10604C87.8446 4.02936 88.8018 3.97825 89.7548 3.88538C90.3756 3.81722 90.9947 3.70391 91.7438 3.5957Z" fill="white"/>
<path d="M76.2797 19.7921C76.0741 19.8065 75.9027 19.8312 75.7321 19.8304C74.5409 19.8236 73.349 19.8236 72.1571 19.7972C71.7744 19.7878 71.6078 19.8909 71.5948 20.3348C71.5526 21.7789 71.4616 23.2213 71.3998 24.6654C71.3762 25.2166 71.4071 25.2388 71.9434 25.2277C73.1077 25.2039 74.272 25.1894 75.4371 25.1425C76.1903 25.1136 76.9427 25.0454 77.6935 24.9789C78.0071 24.9517 78.1127 25.0999 78.0875 25.3973C78.0014 26.4111 77.912 27.4241 77.8267 28.4371C77.8023 28.726 77.6041 28.7106 77.4115 28.7089C76.0847 28.7021 74.7571 28.7174 73.4303 28.6825C71.724 28.6382 70.0234 28.5445 68.3196 28.4925C67.9719 28.4823 67.9694 28.2744 67.9629 28.0205C67.9088 25.5685 67.8519 23.1168 67.7923 20.6653C67.7641 19.4305 67.7371 18.196 67.7111 16.9618C67.6509 13.8145 67.5973 10.6681 67.5315 7.52091C67.5226 7.07021 67.4559 6.62121 67.421 6.17137C67.3991 5.89362 67.5193 5.76071 67.7923 5.73345C68.3797 5.67381 68.9664 5.60224 69.5506 5.51363C70.8636 5.31342 72.1741 5.08764 73.4888 4.89509C74.2875 4.77752 75.0918 4.69828 75.893 4.59775C76.1456 4.56623 76.3975 4.52703 76.6486 4.48444C76.9443 4.43502 77.1401 4.54578 77.1271 4.87464C77.0808 6.0342 77.0199 7.1929 76.9598 8.3516C76.9411 8.71625 76.7006 8.76481 76.417 8.76396C74.9691 8.75941 73.5207 8.75941 72.0718 8.76396C71.4461 8.76396 71.4218 8.781 71.4218 9.42339C71.4169 11.3824 71.4142 13.342 71.4136 15.3021C71.4136 15.8704 71.4429 15.8985 71.9986 15.878C72.6348 15.8559 73.2718 15.8491 73.9056 15.8014C74.48 15.7588 75.0512 15.6736 75.6232 15.5986C75.9482 15.5568 76.0733 15.6838 76.0888 16.0365C76.1318 17.0674 76.2123 18.0957 76.2724 19.1249C76.2903 19.332 76.2797 19.5458 76.2797 19.7921Z" fill="white"/>
<path d="M59.9846 11.0098C59.9846 9.92947 59.9846 9.09282 59.9846 8.25532C59.9846 7.83529 59.8505 7.68789 59.4475 7.70834C59.0047 7.73049 58.5627 7.78076 58.1207 7.82677C57.842 7.85659 57.7226 7.73475 57.7267 7.44252C57.7413 6.50534 57.7478 5.56816 57.7575 4.63097C57.7575 4.27484 57.9704 4.1692 58.2662 4.18453C59.034 4.22458 59.8018 4.28421 60.5696 4.30807C61.4357 4.33533 62.3019 4.33278 63.1696 4.3413C63.7246 4.34726 64.2795 4.36004 64.8344 4.34982C65.1456 4.34471 65.2773 4.48869 65.2846 4.80393C65.3033 5.55538 65.3211 6.30683 65.3569 7.05828C65.3715 7.36414 65.2374 7.44167 64.9758 7.45956C64.507 7.49023 64.0414 7.56862 63.5734 7.60099C63.2322 7.62485 63.2882 7.86426 63.2899 8.08833C63.3175 11.991 63.3446 15.8936 63.3711 19.7963C63.3776 20.7045 63.3711 21.6136 63.3923 22.5227C63.4046 23.0119 63.4456 23.4998 63.5149 23.9838C63.5312 24.0937 63.7124 24.2394 63.8302 24.2581C64.1641 24.2973 64.5078 24.253 64.8418 24.2922C64.9547 24.305 65.1286 24.4558 65.1432 24.564C65.2456 25.2899 65.313 26.0218 65.3869 26.7519C65.4089 26.9649 65.3471 27.0995 65.1099 27.1225C64.7101 27.1609 64.3144 27.2469 63.9139 27.2776C62.5554 27.3832 61.1944 27.4659 59.8359 27.5749C59.3679 27.6124 58.9048 27.7078 58.4384 27.77C58.1435 27.8084 58.0102 27.6388 58.0078 27.35C57.9997 26.4273 57.9907 25.5046 58.0078 24.5828C58.0078 24.4788 58.1703 24.3135 58.2857 24.2897C58.5067 24.2437 58.7431 24.2752 58.973 24.276C59.4605 24.276 59.5077 24.2309 59.5231 23.7257C59.6165 20.6082 59.7002 17.49 59.8034 14.3734C59.8465 13.1713 59.9326 11.9708 59.9846 11.0098Z" fill="white"/>
<path d="M6.80009 18.33C6.42146 18.33 6.04283 18.33 5.66258 18.33C5.00283 18.3257 4.97683 18.2959 4.76314 17.6305C4.54376 16.9489 4.43814 16.2477 4.56326 15.5423C4.75502 14.4611 5.29452 13.61 6.2809 13.1678C6.64016 13.0241 7.01888 12.941 7.40296 12.9216C8.29672 12.8475 8.94672 13.6773 9.22297 14.4552C9.57803 15.4656 9.37491 16.4999 9.4131 17.5223C9.4196 17.7038 9.18641 17.9909 9.00684 18.0642C8.60785 18.2105 8.19392 18.3074 7.77347 18.353C7.45415 18.3964 7.12346 18.3615 6.79846 18.3615L6.80009 18.33ZM7.90997 15.7067C7.90997 15.3804 7.88153 15.0507 7.91809 14.7295C7.95465 14.4083 7.76128 14.2686 7.57359 14.1331C7.36884 13.9874 7.1129 13.9218 6.90327 13.7812C6.5344 13.5333 6.2159 13.6722 6.14115 14.2464C6.11108 14.4713 6.15821 14.7321 6.06477 14.9169C5.77146 15.4963 5.87546 16.1029 5.87546 16.7061C5.87546 17.0043 6.01033 17.1466 6.29958 17.1415C6.71884 17.1347 7.1389 17.1295 7.55734 17.1415C7.82547 17.1517 7.91809 17.0273 7.9124 16.764C7.90509 16.4164 7.91078 16.0612 7.90997 15.7067Z" fill="white"/>
<path d="M26.8659 15.2484C26.9122 16.0228 26.6035 16.7819 26.2582 17.53C26.064 17.956 25.756 17.8375 25.4327 17.7941C25.1541 17.758 24.8727 17.7543 24.5933 17.783C24.0644 17.835 23.5282 17.9969 23.0553 17.5905C22.974 17.5223 22.8708 17.4303 22.8619 17.3408C22.766 16.3679 22.4938 15.4239 22.7725 14.4066C22.948 13.7659 23.0975 13.1542 23.5038 12.6345C23.741 12.3337 24.5511 12.1096 24.8932 12.1497C25.5635 12.2272 25.9803 12.6677 26.3557 13.1636C26.7026 13.6134 26.8732 14.3998 26.8659 15.2484ZM24.7973 16.4786V16.4846C24.8517 16.4846 24.9054 16.4846 24.9598 16.4846C25.804 16.4454 25.8852 16.7061 25.7374 15.5525C25.6512 14.8794 25.5034 14.1893 25.2239 13.5844C25.1101 13.3399 24.5739 13.3109 24.2245 13.1976C24.1831 13.2784 24.1514 13.3643 24.1302 13.4532C24.0132 14.0164 23.9222 14.5864 23.7857 15.1444C23.542 16.1583 23.7467 16.471 24.716 16.4795L24.7973 16.4786Z" fill="white"/>
</svg>
