<svg xmlns="http://www.w3.org/2000/svg" width="1200" height="630" viewBox="0 0 1200 630" role="img" aria-labelledby="title desc">
  <title id="title">UNIA Software Factory</title>
  <desc id="desc">Software factory focused on software engineering, AI, and automation.</desc>
  <defs>
    <linearGradient id="bg" x1="0" y1="0" x2="1" y2="1">
      <stop offset="0%" stop-color="#f8f8f6"/>
      <stop offset="100%" stop-color="#ececea"/>
    </linearGradient>
    <linearGradient id="inkSoft" x1="0" y1="0" x2="1" y2="0">
      <stop offset="0%" stop-color="#111111"/>
      <stop offset="100%" stop-color="#4f4f4f"/>
    </linearGradient>
    <filter id="softBlur" x="-25%" y="-25%" width="150%" height="150%">
      <feGaussianBlur stdDeviation="42"/>
    </filter>
  </defs>

  <rect width="1200" height="630" fill="url(#bg)"/>
  <ellipse cx="1080" cy="70" rx="250" ry="160" fill="#131313" opacity="0.12" filter="url(#softBlur)"/>
  <ellipse cx="120" cy="580" rx="230" ry="140" fill="#6a6a6a" opacity="0.12" filter="url(#softBlur)"/>

  <rect x="58" y="52" width="1084" height="526" rx="28" fill="#ffffff" opacity="0.9"/>
  <rect x="58" y="52" width="1084" height="526" rx="28" fill="none" stroke="#dfdfdc"/>

  <g transform="translate(120 122) scale(4.85)">
    <g clip-path="url(#logoClip)">
      <path d="M30.8595 0H13.0707C9.60472 0 6.28074 1.37684 3.82995 3.82763C1.37916 6.27842 0.00231934 9.6024 0.00231934 13.0683V30.8571C0.00231934 34.3231 1.37916 37.6471 3.82995 40.0979C6.28074 42.5486 9.60472 43.9255 13.0707 43.9255H30.8595C34.3254 43.9255 37.6494 42.5486 40.1002 40.0979C42.551 37.6471 43.9278 34.3231 43.9278 30.8571V13.0715C43.9282 11.3551 43.5905 9.65539 42.9339 8.0695C42.2774 6.48361 41.3148 5.0426 40.1013 3.82875C38.8877 2.61491 37.447 1.65202 35.8612 0.995073C34.2755 0.338129 32.5759 -5.04368e-08 30.8595 0ZM32.1267 25.9949H29.2992V14.7736C29.2992 13.7255 29.0333 12.8835 28.5016 12.2478C27.9699 11.6121 27.269 11.2937 26.3988 11.2926H23.8089C22.9224 11.2926 22.2095 11.611 21.6704 12.2478C21.1313 12.8846 20.8615 13.7265 20.861 14.7736V20.1411H23.0596V17.9551H25.8856V29.2232C25.8856 30.4001 25.644 31.4356 25.1609 32.3295C24.6973 33.203 23.9921 33.9245 23.1293 34.4078C22.2602 34.8972 21.2536 35.142 20.1094 35.142H17.5226C16.3943 35.142 15.3952 34.8962 14.5256 34.4046C13.6646 33.9235 12.9632 33.2011 12.5075 32.3263C12.0323 31.4314 11.7947 30.3959 11.7947 29.22V17.9551H14.623V29.1749C14.623 30.223 14.8889 31.0649 15.4206 31.7006C15.9523 32.3364 16.6532 32.6548 17.5234 32.6558H20.1101C20.9956 32.6558 21.7084 32.3374 22.2486 31.7006C22.7888 31.0639 23.0588 30.2219 23.0588 29.1749V22.9686H20.8602V25.9949H18.0319V22.9686H18.0271V20.1411H18.0319V14.7253C18.0319 13.5483 18.2737 12.5129 18.7574 11.6189C19.2205 10.7457 19.9252 10.0242 20.7873 9.54069C21.658 9.04858 22.6652 8.80279 23.8089 8.80331H26.3956C27.5235 8.80331 28.5225 9.0491 29.3926 9.54069C30.2532 10.0224 30.9545 10.7446 31.4107 11.6189C31.8859 12.5129 32.1235 13.5483 32.1235 14.7253L32.1267 25.9949Z" fill="#111111"/>
      <path d="M112.842 10.9829H109.229V32.9472H112.842V10.9829Z" fill="#111111"/>
      <path d="M96.5869 11.9247C95.4749 11.2985 94.1984 10.9854 92.7575 10.9854H89.4524C88.0267 10.9854 86.7761 11.2879 85.6847 11.8827V10.9854H82.0715V32.9489H85.6847V32.7018V18.6038C85.6847 17.2674 86.0295 16.1932 86.7191 15.3811C87.4087 14.569 88.3198 14.1624 89.4524 14.1614H92.7575C93.8663 14.1614 94.7618 14.5679 95.444 15.3811C96.1262 16.1942 96.466 17.27 96.4634 18.6086V32.9441H100.077V18.5492C100.077 17.0459 99.7729 15.7232 99.1657 14.5811C98.5827 13.4637 97.6865 12.5405 96.5869 11.9247Z" fill="#111111"/>
      <path d="M139.088 14.5811C138.506 13.4633 137.61 12.54 136.51 11.9246C135.401 11.2963 134.124 10.9824 132.68 10.9829H129.376C127.915 10.9829 126.628 11.2968 125.516 11.9246C124.414 12.5428 123.515 13.4651 122.924 14.5811C122.306 15.7232 121.998 17.0458 121.998 18.5491V32.9488H125.61V30.1522H132.039V26.5406H125.611V18.6109C125.611 17.2724 125.956 16.1965 126.646 15.3834C127.335 14.5702 128.246 14.1637 129.379 14.1637H132.683C133.795 14.1637 134.691 14.5702 135.371 15.3834C136.05 16.1965 136.389 17.2724 136.388 18.6109V32.9464H140.002V18.5491C140.001 17.0442 139.696 15.7216 139.088 14.5811Z" fill="#111111"/>
      <path d="M69.3042 10.9854V25.3209C69.3042 26.6589 68.9594 27.7345 68.2698 28.5476C67.5802 29.3608 66.6691 29.7676 65.5365 29.7681H62.2314C61.1226 29.7681 60.2271 29.3613 59.5449 28.5476C58.8627 27.734 58.5234 26.6584 58.5271 25.3209V10.9854H54.9139V25.3843C54.9139 26.8875 55.2178 28.2105 55.8255 29.3531C56.4079 30.4708 57.3042 31.3939 58.4044 32.0088C59.5132 32.6376 60.7894 32.9518 62.233 32.9513H65.5381C66.9991 32.9513 68.2859 32.6371 69.3984 32.0088C70.5006 31.3916 71.4012 30.4695 71.9923 29.3531C72.6106 28.2105 72.9195 26.8875 72.919 25.3843V10.9854H69.3042Z" fill="#111111"/>
    </g>
  </g>

  <text x="120" y="390" fill="#1f1f1f" font-family="-apple-system, BlinkMacSystemFont, Segoe UI, Geist, Inter, Arial, sans-serif" font-size="66" font-weight="780" letter-spacing="0.3">Software Factory</text>
  <text x="120" y="447" fill="#535353" font-family="-apple-system, BlinkMacSystemFont, Segoe UI, Geist, Inter, Arial, sans-serif" font-size="35" font-weight="500">Build software, automate workflows, and scale operations.</text>

  <g transform="translate(120 488)">
    <rect x="0" y="0" width="220" height="56" rx="14" fill="#131313"/>
    <text x="110" y="36" text-anchor="middle" fill="#ffffff" font-family="-apple-system, BlinkMacSystemFont, Segoe UI, Geist, Inter, Arial, sans-serif" font-size="24" font-weight="700">Engineering</text>

    <rect x="238" y="0" width="145" height="56" rx="14" fill="#efefed" stroke="#d8d8d5"/>
    <text x="311" y="36" text-anchor="middle" fill="#171717" font-family="-apple-system, BlinkMacSystemFont, Segoe UI, Geist, Inter, Arial, sans-serif" font-size="24" font-weight="700">AI</text>

    <rect x="401" y="0" width="240" height="56" rx="14" fill="url(#inkSoft)"/>
    <text x="521" y="36" text-anchor="middle" fill="#ffffff" font-family="-apple-system, BlinkMacSystemFont, Segoe UI, Geist, Inter, Arial, sans-serif" font-size="24" font-weight="700">Automation</text>
  </g>

  <defs>
    <clipPath id="logoClip">
      <rect width="140" height="43.9318" fill="white"/>
    </clipPath>
  </defs>
</svg>
