<svg xmlns="http://www.w3.org/2000/svg" width="44" height="44" viewBox="0 0 44 44" fill="none">
  <path d="M30.8595 0H13.0707C9.60472 0 6.28074 1.37684 3.82995 3.82763C1.37916 6.27842 0.00231934 9.6024 0.00231934 13.0683V30.8571C0.00231934 34.3231 1.37916 37.6471 3.82995 40.0979C6.28074 42.5486 9.60472 43.9255 13.0707 43.9255H30.8595C34.3254 43.9255 37.6494 42.5486 40.1002 40.0979C42.551 37.6471 43.9278 34.3231 43.9278 30.8571V13.0715C43.9282 11.3551 43.5905 9.65539 42.9339 8.0695C42.2774 6.48361 41.3148 5.0426 40.1013 3.82875C38.8877 2.61491 37.447 1.65202 35.8612 0.995073C34.2755 0.338129 32.5759 -5.04368e-08 30.8595 0ZM32.1267 25.9949H29.2992V14.7736C29.2992 13.7255 29.0333 12.8835 28.5016 12.2478C27.9699 11.6121 27.269 11.2937 26.3988 11.2926H23.8089C22.9224 11.2926 22.2095 11.611 21.6704 12.2478C21.1313 12.8846 20.8615 13.7265 20.861 14.7736V20.1411H23.0596V17.9551H25.8856V29.2232C25.8856 30.4001 25.644 31.4356 25.1609 32.3295C24.6973 33.203 23.9921 33.9245 23.1293 34.4078C22.2602 34.8972 21.2536 35.142 20.1094 35.142H17.5226C16.3943 35.142 15.3952 34.8962 14.5256 34.4046C13.6646 33.9235 12.9632 33.2011 12.5075 32.3263C12.0323 31.4314 11.7947 30.3959 11.7947 29.22V17.9551H14.623V29.1749C14.623 30.223 14.8889 31.0649 15.4206 31.7006C15.9523 32.3364 16.6532 32.6548 17.5234 32.6558H20.1101C20.9956 32.6558 21.7084 32.3374 22.2486 31.7006C22.7888 31.0639 23.0588 30.2219 23.0588 29.1749V22.9686H20.8602V25.9949H18.0319V22.9686H18.0271V20.1411H18.0319V14.7253C18.0319 13.5483 18.2737 12.5129 18.7574 11.6189C19.2205 10.7457 19.9252 10.0242 20.7873 9.54069C21.658 9.04858 22.6652 8.80279 23.8089 8.80331H26.3956C27.5235 8.80331 28.5225 9.0491 29.3926 9.54069C30.2532 10.0224 30.9545 10.7446 31.4107 11.6189C31.8859 12.5129 32.1235 13.5483 32.1235 14.7253L32.1267 25.9949Z" fill="#111111"/>
</svg>
